<svg style="position: absolute; width: 0; height: 0; overflow: hidden;" version="1.1"
     xmlns="http://www.w3.org/2000/svg">
    <defs>
        <symbol id="tcb-icon-save" viewBox="0 0 448 512">
            <path d="M433.941 129.941l-83.882-83.882A48 48 0 0 0 316.118 32H48C21.49 32 0 53.49 0 80v352c0 26.51 21.49 48 48 48h352c26.51 0 48-21.49 48-48V163.882a48 48 0 0 0-14.059-33.941zM288 64v96H96V64h192zm128 368c0 8.822-7.178 16-16 16H48c-8.822 0-16-7.178-16-16V80c0-8.822 7.178-16 16-16h16v104c0 13.255 10.745 24 24 24h208c13.255 0 24-10.745 24-24V64.491a15.888 15.888 0 0 1 7.432 4.195l83.882 83.882A15.895 15.895 0 0 1 416 163.882V432zM224 232c-48.523 0-88 39.477-88 88s39.477 88 88 88 88-39.477 88-88-39.477-88-88-88zm0 144c-30.879 0-56-25.121-56-56s25.121-56 56-56 56 25.121 56 56-25.121 56-56 56z"></path>
        </symbol>
        <symbol id="tcb-icon-lock-outline" viewBox="0 0 448 512">
            <path d="M224 420c-11 0-20-9-20-20v-64c0-11 9-20 20-20s20 9 20 20v64c0 11-9 20-20 20zm224-148v192c0 26.5-21.5 48-48 48H48c-26.5 0-48-21.5-48-48V272c0-26.5 21.5-48 48-48h16v-64C64 71.6 136-.3 224.5 0 312.9.3 384 73.1 384 161.5V224h16c26.5 0 48 21.5 48 48zM96 224h256v-64c0-70.6-57.4-128-128-128S96 89.4 96 160v64zm320 240V272c0-8.8-7.2-16-16-16H48c-8.8 0-16 7.2-16 16v192c0 8.8 7.2 16 16 16h352c8.8 0 16-7.2 16-16z"></path>
        </symbol>
        <symbol id="tcb-icon-lock-open-outline" viewBox="0 0 384 512">
            <path d="M336 256H96v-96c0-70.6 25.4-128 96-128s96 57.4 96 128v20c0 6.6 5.4 12 12 12h8c6.6 0 12-5.4 12-12v-18.5C320 73.1 280.9.3 192.5 0 104-.3 64 71.6 64 160v96H48c-26.5 0-48 21.5-48 48v160c0 26.5 21.5 48 48 48h288c26.5 0 48-21.5 48-48V304c0-26.5-21.5-48-48-48zm16 208c0 8.8-7.2 16-16 16H48c-8.8 0-16-7.2-16-16V304c0-8.8 7.2-16 16-16h288c8.8 0 16 7.2 16 16v160zm-160-32c-8.8 0-16-7.2-16-16v-64c0-8.8 7.2-16 16-16s16 7.2 16 16v64c0 8.8-7.2 16-16 16z"></path>
        </symbol>
        <symbol id="tcb-icon-center" viewBox="0 0 32 32">
            <path d="M15 0h2v32h-2v-32z"></path>
            <path d="M10 12h12c1.6 0 3 1.4 3 3v2c0 1.6-1.4 3-3 3h-12c-1.6 0-3-1.4-3-3v-2c0-1.6 1.4-3 3-3z"></path>
        </symbol>
        <symbol id="tcb-icon-float" viewBox="0 0 32 32">
            <path d="M4 9.333h8v9.333h-8v-9.333zM4 5.333h24v1.333h-24v-1.333zM28 9.333v1.333h-13.333v-1.333h13.333zM28 13.333v1.333h-13.333v-1.333h13.333zM28 17.333v1.333h-13.333v-1.333h13.333zM4 21.333h18.667v1.333h-18.667v-1.333zM4 25.333h24v1.333h-24v-1.333z"></path>
        </symbol>
        <symbol id="tcb-icon-justify" viewBox="0 0 32 32">
            <path d="M30 0h2v32h-2v-32z"></path>
            <path d="M0 0h2v32h-2v-32z"></path>
            <path d="M9 12h14c1.6 0 3 1.4 3 3v2c0 1.6-1.4 3-3 3h-14c-1.6 0-3-1.4-3-3v-2c0-1.6 1.4-3 3-3z"></path>
        </symbol>
        <symbol id="tcb-icon-left" viewBox="0 0 32 32">
            <path d="M5 0h2v32h-2v-32z"></path>
            <path d="M14 12h10c1.6 0 3 1.4 3 3v2c0 1.6-1.4 3-3 3h-10c-1.6 0-3-1.4-3-3v-2c0-1.6 1.4-3 3-3z"></path>
        </symbol>
        <symbol id="tcb-icon-right" viewBox="0 0 32 32">
            <path d="M25 0h2v32h-2v-32z"></path>
            <path d="M8 12h10c1.6 0 3 1.4 3 3v2c0 1.6-1.4 3-3 3h-10c-1.6 0-3-1.4-3-3v-2c0-1.6 1.4-3 3-3z"></path>
        </symbol>
        <symbol id="tcb-icon-move" viewBox="0 0 512 512">
            <path d="M337.782 434.704l-73.297 73.782c-4.686 4.686-12.284 4.686-16.971 0l-73.296-73.782c-4.686-4.686-4.686-12.284 0-16.97l7.07-7.07c4.686-4.686 12.284-4.686 16.971 0L239 451.887h1V272H60.113v1l41.224 40.741c4.686 4.686 4.686 12.284 0 16.971l-7.071 7.07c-4.686 4.686-12.284 4.686-16.97 0L3.515 264.485c-4.686-4.686-4.686-12.284 0-16.971l73.782-73.297c4.686-4.686 12.284-4.686 16.971 0l7.071 7.071c4.686 4.686 4.686 12.284 0 16.971L60.113 239v1H240V60.113h-1l-40.741 41.224c-4.686 4.686-12.284 4.686-16.971 0l-7.07-7.071c-4.686-4.686-4.687-12.284 0-16.97l73.297-73.782c4.686-4.686 12.284-4.686 16.971 0l73.297 73.782c4.686 4.686 4.686 12.284 0 16.971l-7.071 7.071c-4.686 4.686-12.284 4.686-16.971 0L273 60.113h-1V240h179.887v-1l-41.224-40.741c-4.686-4.686-4.686-12.284 0-16.971l7.071-7.07c4.686-4.686 12.284-4.686 16.97 0l73.782 73.297c4.687 4.686 4.686 12.284 0 16.971l-73.782 73.297c-4.686 4.686-12.284 4.686-16.97 0l-7.071-7.07c-4.686-4.686-4.686-12.284 0-16.971L451.887 273v-1H272v179.887h1l40.741-41.224c4.686-4.686 12.284-4.686 16.971 0l7.07 7.071c4.686 4.685 4.686 12.283 0 16.97z"></path>
        </symbol>
        <symbol id="tcb-icon-play" viewBox="0 0 32 32">
            <path fill="#fff" style="fill: var(--color1, #fff)"
                  d="M29.854 7.969c-1.422-2.431-3.392-4.401-5.748-5.782l-0.075-0.041q-3.677-2.146-8.031-2.146t-8.031 2.146c-2.431 1.422-4.401 3.392-5.782 5.748l-0.041 0.075q-2.146 3.678-2.146 8.031t2.146 8.031c1.422 2.431 3.392 4.401 5.748 5.782l0.075 0.041q3.677 2.146 8.031 2.146t8.031-2.146c2.431-1.422 4.401-3.392 5.782-5.748l0.041-0.075q2.146-3.678 2.146-8.031t-2.146-8.031zM24 17.146l-11.333 6.667c-0.19 0.118-0.42 0.188-0.666 0.188-0 0-0.001 0-0.001 0h0c-0.244-0.003-0.473-0.064-0.675-0.171l0.008 0.004q-0.667-0.396-0.667-1.166v-13.333q0-0.771 0.667-1.167 0.688-0.375 1.333 0.021l11.334 6.667q0.666 0.375 0.666 1.146t-0.666 1.146z"></path>
        </symbol>
        <symbol id="tcb-icon-video-player" viewBox="0 0 32 32">
            <path d="M21.224 18.053l-8-4c-0.155-0.077-0.339-0.070-0.486 0.022s-0.237 0.252-0.237 0.425v8c0 0.173 0.090 0.334 0.237 0.425 0.080 0.050 0.171 0.075 0.263 0.075 0.077 0 0.153-0.018 0.224-0.053l8-4c0.169-0.085 0.276-0.258 0.276-0.447s-0.107-0.362-0.276-0.447zM13.5 21.691v-6.382l6.382 3.191-6.382 3.191z"></path>
            <path d="M30 2.5h-28c-1.105 0-2 0.895-2 2v23c0 1.105 0.895 2 2 2h28c1.105 0 2-0.895 2-2v-23c0-1.105-0.895-2-2-2zM31 4.5v4h-4.164l1.34-5h1.825c0.551 0 1 0.449 1 1zM10.64 3.5l-1.339 5h-4.475l1.339-5h4.475zM11.675 3.5h4.465l-1.339 5h-4.465l1.339-5zM17.175 3.5h4.465l-1.34 5h-4.465l1.34-5zM22.675 3.5h4.465l-1.34 5h-4.465l1.34-5zM2 3.5h3.13l-1.339 5h-2.79v-4c0-0.551 0.449-1 1-1zM30 28.5h-28c-0.551 0-1-0.449-1-1v-18h30v18c0 0.551-0.449 1-1 1z"></path>
        </symbol>
        <symbol id="tcb-icon-post_grid" viewBox="0 0 32 32">
            <path d="M14.045 14.54c0.414 0 0.75-0.336 0.75-0.75s-0.336-0.75-0.75-0.75h-13.295c-0.414 0-0.75 0.337-0.75 0.75s0.336 0.75 0.75 0.75h13.295z"></path>
            <path d="M31.25 13.040h-13.295c-0.414 0-0.75 0.336-0.75 0.75s0.336 0.75 0.75 0.75h13.295c0.414 0 0.75-0.336 0.75-0.75s-0.336-0.75-0.75-0.75z"></path>
            <path d="M13.285-0.033h-11.6c-0.929 0-1.685 0.756-1.685 1.685v7.797c0 0.929 0.756 1.685 1.685 1.685h11.6c0.929 0 1.685-0.756 1.685-1.685v-7.797c0-0.929-0.756-1.685-1.685-1.685zM13.47 9.449c0 0.102-0.083 0.185-0.185 0.185h-11.6c-0.102 0-0.185-0.083-0.185-0.185v-7.797c0-0.102 0.083-0.185 0.185-0.185h11.6c0.102 0 0.185 0.083 0.185 0.185v7.797z"></path>
            <path d="M30.315-0.033h-11.6c-0.929 0-1.684 0.756-1.684 1.685v7.797c0 0.929 0.756 1.685 1.684 1.685h11.6c0.93 0 1.685-0.756 1.685-1.685v-7.797c0-0.929-0.756-1.685-1.685-1.685zM30.5 9.449c0 0.102-0.083 0.185-0.185 0.185h-11.6c-0.101 0-0.184-0.083-0.184-0.185v-7.797c0-0.102 0.083-0.185 0.184-0.185h11.6c0.102 0 0.185 0.083 0.185 0.185v7.797z"></path>
            <path d="M14.045 30.5h-13.295c-0.414 0-0.75 0.336-0.75 0.75s0.336 0.75 0.75 0.75h13.295c0.414 0 0.75-0.336 0.75-0.75s-0.335-0.75-0.75-0.75z"></path>
            <path d="M31.25 30.5h-13.295c-0.414 0-0.75 0.336-0.75 0.75s0.336 0.75 0.75 0.75h13.295c0.414 0 0.75-0.336 0.75-0.75s-0.336-0.75-0.75-0.75z"></path>
            <path d="M13.285 17.426h-11.6c-0.929 0-1.685 0.756-1.685 1.685v7.797c0 0.93 0.756 1.686 1.685 1.686h11.6c0.929 0 1.685-0.756 1.685-1.686v-7.797c0-0.929-0.756-1.685-1.685-1.685zM13.47 26.908c0 0.103-0.083 0.186-0.185 0.186h-11.6c-0.102 0-0.185-0.083-0.185-0.186v-7.797c0-0.102 0.083-0.185 0.185-0.185h11.6c0.102 0 0.185 0.083 0.185 0.185v7.797z"></path>
            <path d="M30.315 17.426h-11.6c-0.929 0-1.684 0.756-1.684 1.685v7.797c0 0.93 0.756 1.686 1.684 1.686h11.6c0.93 0 1.685-0.756 1.685-1.686v-7.797c0-0.929-0.756-1.685-1.685-1.685zM30.5 26.908c0 0.103-0.083 0.186-0.185 0.186h-11.6c-0.101 0-0.184-0.083-0.184-0.186v-7.797c0-0.102 0.083-0.185 0.184-0.185h11.6c0.104 0 0.185 0.081 0.185 0.185v7.797z"></path>
        </symbol>
        <symbol id="tcb-icon-content_temp" viewBox="0 0 32 32">
            <path d="M26.393 12.581h-20.786v6.837h20.785v-6.837zM24.893 17.918h-17.786v-3.837h17.785v3.837z"></path>
            <path d="M25.885 8.962h-19.77c-0.414 0-0.75 0.336-0.75 0.75s0.336 0.75 0.75 0.75h19.77c0.414 0 0.75-0.336 0.75-0.75s-0.336-0.75-0.75-0.75z"></path>
            <path d="M25.885 21.538h-19.77c-0.414 0-0.75 0.336-0.75 0.75s0.336 0.75 0.75 0.75h19.77c0.414 0 0.75-0.336 0.75-0.75s-0.336-0.75-0.75-0.75z"></path>
            <path d="M1.5 3.602c0-1.159 0.943-2.102 2.137-2.102l-0.035-1.5c-1.986 0-3.602 1.616-3.602 3.602v0.667h1.5v-0.667z"></path>
            <path d="M0 18.327h1.5v5.184h-1.5v-5.184z"></path>
            <path d="M0 11.913h1.5v5.184h-1.5v-5.184z"></path>
            <path d="M0 5.499h1.5v5.184h-1.5v-5.184z"></path>
            <path d="M17.694 0h5.185v1.5h-5.185v-1.5z"></path>
            <path d="M29.021 1.621l0.504-1.413c-0.387-0.138-0.795-0.208-1.209-0.208h-4.208v1.5h4.208c0.243 0 0.48 0.041 0.705 0.121z"></path>
            <path d="M4.867 0h5.184v1.5h-5.184v-1.5z"></path>
            <path d="M1.5 28.316v-3.576h-1.5v3.576c0 0.685 0.193 1.351 0.558 1.926l1.267-0.803c-0.213-0.335-0.325-0.722-0.325-1.123z"></path>
            <path d="M11.281 0h5.184v1.5h-5.184v-1.5z"></path>
            <path d="M14.786 30.418h5.184v1.5h-5.184v-1.5z"></path>
            <path d="M30.418 14.154h1.5v5.185h-1.5v-5.185z"></path>
            <path d="M2.458 30.079l-0.818 1.258c0.584 0.38 1.263 0.581 1.962 0.581h3.541v-1.5h-3.541c-0.409 0-0.805-0.117-1.144-0.339z"></path>
            <path d="M30.418 7.741h1.5v5.184h-1.5v-5.184z"></path>
            <path d="M30.418 28.316c0 1.159-0.942 2.102-2.102 2.102h-0.702v1.5h0.702c1.986 0 3.602-1.615 3.602-3.602v-1.334h-1.5v1.334z"></path>
            <path d="M30.418 20.568h1.5v5.184h-1.5v-5.184z"></path>
            <path d="M8.372 30.418h5.184v1.5h-5.184v-1.5z"></path>
            <path d="M30.833 1.024l-1.049 1.073c0.409 0.399 0.634 0.933 0.634 1.504v2.909h1.5v-2.908c0-0.978-0.386-1.893-1.085-2.578z"></path>
            <path d="M21.2 30.418h5.184v1.5h-5.184v-1.5z"></path>
        </symbol>
        <symbol id="tcb-icon-copy" viewBox="0 0 448 512">
            <path d="M433.941 65.941l-51.882-51.882A48 48 0 0 0 348.118 0H176c-26.51 0-48 21.49-48 48v48H48c-26.51 0-48 21.49-48 48v320c0 26.51 21.49 48 48 48h224c26.51 0 48-21.49 48-48v-48h80c26.51 0 48-21.49 48-48V99.882a48 48 0 0 0-14.059-33.941zM352 32.491a15.88 15.88 0 0 1 7.431 4.195l51.882 51.883A15.885 15.885 0 0 1 415.508 96H352V32.491zM288 464c0 8.822-7.178 16-16 16H48c-8.822 0-16-7.178-16-16V144c0-8.822 7.178-16 16-16h80v240c0 26.51 21.49 48 48 48h112v48zm128-96c0 8.822-7.178 16-16 16H176c-8.822 0-16-7.178-16-16V48c0-8.822 7.178-16 16-16h144v72c0 13.2 10.8 24 24 24h72v240z"></path>
        </symbol>
        <symbol id="tcb-icon-trash" viewBox="0 0 512 512">
            <path d="M368 64l-33.6-44.8C325.3 7.1 311.1 0 296 0h-80c-15.1 0-29.3 7.1-38.4 19.2L144 64H40c-13.3 0-24 10.7-24 24v2c0 3.3 2.7 6 6 6h20.9l33.2 372.3C78.3 493 99 512 123.9 512h264.2c24.9 0 45.6-19 47.8-43.7L469.1 96H490c3.3 0 6-2.7 6-6v-2c0-13.3-10.7-24-24-24H368zM216 32h80c5 0 9.8 2.4 12.8 6.4L328 64H184l19.2-25.6c3-4 7.8-6.4 12.8-6.4zm188 433.4c-.7 8.3-7.6 14.6-15.9 14.6H123.9c-8.3 0-15.2-6.3-15.9-14.6L75 96h362l-33 369.4z"></path>
        </symbol>
        <symbol id="tcb-icon-add" viewBox="0 0 32 32">
            <path d="M18 4v10h10v4h-10v10h-4v-10h-10v-4h10v-10h4z"></path>
        </symbol>
        <symbol id="tcb-icon-delete" viewBox="0 0 32 32">
            <path d="M22 8c0-2.2-1.8-4-4-4h-4c-2.2 0-4 1.8-4 4h-4v2h20v-2h-4zM12 8c0-1.2 0.8-2 2-2h4c1.2 0 2 0.8 2 2h-8z"></path>
            <path d="M8 24c0 2.2 1.8 4 4 4h8c2.2 0 4-1.8 4-4v-12h-16v12z"></path>
        </symbol>
        <symbol id="tcb-icon-merge" viewBox="0 0 32 32">
            <path d="M22.667 27.2l1.867-1.867-4.533-4.533-1.867 1.867zM10 10.667h4.667v7.467l-7.2 7.2 1.867 1.867 8-8v-8.533h4.667l-6-6z"></path>
        </symbol>
        <symbol id="tcb-icon-split" viewBox="0 0 32 32">
            <path d="M18.667 5.333l3.067 3.067-3.867 3.867 1.867 1.867 3.867-3.867 3.067 3.067v-8zM13.333 5.333h-8v8l3.067-3.067 6.267 6.267v10.133h2.667v-11.2l-7.067-7.067z"></path>
        </symbol>
        <symbol id="tcb-icon-table" viewBox="0 0 32 32">
            <path d="M-0.022-0.022v32.045h32.045v-32.045h-32.045zM30.522 10.261h-8.689v-8.783h8.689v8.783zM11.667 20.427v-8.666h8.667v8.666h-8.667zM20.333 21.927v8.596h-8.667v-8.596h8.667zM10.167 20.427h-8.689v-8.666h8.689v8.666zM11.667 10.261v-8.783h8.667v8.783h-8.667zM21.833 11.761h8.689v8.666h-8.689v-8.666zM10.167 1.478v8.783h-8.689v-8.783h8.689zM1.478 21.927h8.689v8.596h-8.689v-8.596zM21.833 30.522v-8.596h8.689v8.596h-8.689z"></path>
        </symbol>
        <symbol id="tcb-icon-image" viewBox="0 0 32 32">
            <path d="M29.301 0.049h-26.602c-1.461 0-2.65 1.188-2.65 2.649v26.603c0 1.462 1.189 2.65 2.65 2.65h26.602c1.462 0 2.65-1.189 2.65-2.65v-26.603c0-1.461-1.188-2.649-2.65-2.649zM2.699 1.549h26.602c0.635 0 1.15 0.516 1.15 1.149v23.305l-7.881-8.152-4.18 4.288-6.324-6.262-10.517 10.375v-23.554c0-0.634 0.515-1.149 1.15-1.149zM1.549 29.301v-0.94l10.518-10.377 5.061 4.988 0.238 0.271-6.969 7.208h-7.698c-0.635 0-1.15-0.516-1.15-1.15zM29.301 30.451h-16.817l10.091-10.438 7.812 8.081c0.019 0.020 0.044 0.027 0.065 0.044v1.162c-0.001 0.635-0.517 1.151-1.151 1.151z"></path>
            <path d="M21.571 12.57c1.902 0 3.449-1.548 3.449-3.45s-1.547-3.449-3.449-3.449c-1.902 0-3.449 1.547-3.449 3.449s1.547 3.45 3.449 3.45zM21.571 7.171c1.075 0 1.949 0.875 1.949 1.949s-0.874 1.95-1.949 1.95-1.949-0.875-1.949-1.95c0-1.075 0.874-1.949 1.949-1.949z"></path>
        </symbol>
        <symbol id="tcb-icon-testimonials" viewBox="0 0 32 32">
            <path d="M20.405 7.832h-1.349l1.228-3.638h-2.096l-1.639 3.857v3.759h3.856z"></path>
            <path d="M14.997 7.832h-1.351l1.23-3.638h-2.097l-1.639 3.857v3.759h3.857z"></path>
            <path d="M27.237 17.257c0-0.414-0.336-0.75-0.75-0.75h-21.069c-0.414 0-0.75 0.336-0.75 0.75s0.336 0.75 0.75 0.75h21.069c0.414 0 0.75-0.336 0.75-0.75z"></path>
            <path d="M5.418 20.6c-0.414 0-0.75 0.336-0.75 0.75s0.336 0.75 0.75 0.75h14.543c0.414 0 0.75-0.336 0.75-0.75s-0.336-0.75-0.75-0.75h-14.543z"></path>
            <path d="M29.313 8.915h-6.739v1.5h6.739c0.626 0 1.136 0.51 1.136 1.137v13.617c0 0.627-0.51 1.137-1.136 1.137h-26.625c-0.627 0-1.137-0.51-1.137-1.137v-13.617c0-0.627 0.51-1.137 1.137-1.137h6.21v-1.5h-6.21c-1.454 0-2.637 1.183-2.637 2.637v13.617c0 1.454 1.183 2.637 2.637 2.637h26.626c1.453 0 2.636-1.183 2.636-2.637v-13.617c-0.001-1.454-1.183-2.637-2.637-2.637z"></path>
        </symbol>
        <symbol id="tcb-icon-custom_html" viewBox="0 0 32 32">
            <path d="M18.985 2.537c-0.409-0.086-0.803 0.176-0.887 0.583l-5.27 25.456c-0.084 0.406 0.177 0.803 0.583 0.887 0.051 0.011 0.102 0.016 0.153 0.016 0.348 0 0.66-0.243 0.733-0.598l5.27-25.457c0.084-0.406-0.176-0.803-0.582-0.887z"></path>
            <path d="M31.728 15.567l-6.549-5.415c-0.317-0.263-0.791-0.219-1.056 0.1-0.264 0.319-0.219 0.792 0.101 1.056l5.83 4.821-5.814 4.549c-0.326 0.256-0.384 0.727-0.129 1.053 0.148 0.19 0.368 0.288 0.592 0.288 0.161 0 0.324-0.052 0.461-0.159l6.549-5.124c0.179-0.14 0.285-0.354 0.288-0.58 0.002-0.227-0.098-0.444-0.273-0.589z"></path>
            <path d="M7.965 10.252c-0.265-0.318-0.737-0.364-1.056-0.1l-6.547 5.415c-0.175 0.145-0.275 0.361-0.272 0.588s0.109 0.44 0.288 0.58l6.547 5.124c0.137 0.107 0.3 0.159 0.462 0.159 0.223 0 0.443-0.099 0.591-0.288 0.255-0.326 0.198-0.797-0.128-1.053l-5.813-4.549 5.829-4.821c0.319-0.263 0.363-0.736 0.099-1.055z"></path>
        </symbol>
        <symbol id="tcb-icon-wordpress" viewBox="0 0 32 32">
            <path d="M16 0.353c-8.628 0-15.647 7.019-15.647 15.647s7.019 15.647 15.647 15.647c8.628 0 15.647-7.020 15.647-15.647s-7.019-15.647-15.647-15.647zM16 1.853c3.614 0 6.905 1.374 9.408 3.612-0.007-0.001-0.017-0.004-0.023-0.004-2.473-0.254-2.725 1.741-2.502 2.998 0.152 0.866 0.455 1.882 1.649 3.782 1.34 2.137 0.479 5.578 0.479 5.578l-2.15 7.129-4.834-15.58c0.467 0 0.861 0 1.105 0 0.77 0.007 0.984-0.431 0.938-0.717-0.020-0.088-0.1-0.347-0.326-0.448-0.375-0.159-1.779-0.051-3.477-0.051-1.707 0-3.020 0.002-4.038-0.010-0.164 0-0.47 0.145-0.474 0.478-0.004 0.354 0.388 0.807 0.885 0.782 0.535-0.027 1.043-0.020 1.043-0.020s0.019 0 0.055 0l2.057 6.274-2.964 9.337-4.953-15.492c0.45 0 0.831 0 1.074 0 0.765 0.004 0.984-0.431 0.933-0.713-0.010-0.094-0.096-0.352-0.331-0.447-0.37-0.162-1.772-0.057-3.473-0.057-0.956 0-1.472 0.001-1.924 0.002 2.528-3.868 6.888-6.433 11.843-6.433zM1.853 16c0-2.359 0.588-4.58 1.613-6.538 0.018 0.037 0.029 0.060 0.029 0.060s0.025-0.004 0.059-0.004l0.604 1.613 2.077 6.111v0.005l0.006 0.007 4.053 11.683c-4.964-2.201-8.441-7.167-8.441-12.937zM12.52 29.696l4.207-12.278 3.838 11.959c-1.434 0.491-2.967 0.77-4.565 0.77-1.203 0-2.364-0.167-3.48-0.451zM23.046 28.25c1.199-3.713 4.315-13.401 4.772-15.21 0.398-1.584 0.566-2.839 0.504-3.967 1.157 2.050 1.825 4.41 1.825 6.927 0 5.234-2.864 9.803-7.101 12.25z"></path>
        </symbol>
        <symbol id="tcb-icon-column" viewBox="0 0 32 32">
            <path d="M18.5 0.3h-5c-1.2 0-2.3 1-2.3 2.3v27c0 1.2 1 2.3 2.3 2.3h5c1.2 0 2.3-1 2.3-2.3v-27c0-1.3-1.1-2.3-2.3-2.3zM19.3 29.5c0 0.4-0.3 0.8-0.8 0.8h-5c-0.4 0-0.8-0.3-0.8-0.8v-27c0-0.4 0.3-0.8 0.8-0.8h5c0.4 0 0.8 0.3 0.8 0.8v27z"></path>
            <path d="M29.5 0h-5c-1.2 0-2.3 1-2.3 2.3v27c0 1.2 1 2.3 2.3 2.3h5c1.2 0 2.3-1 2.3-2.3v-27c-0.1-1.3-1.1-2.3-2.3-2.3zM30.2 29.3c0 0.4-0.3 0.8-0.8 0.8h-5c-0.4 0-0.8-0.3-0.8-0.8v-27c0-0.4 0.3-0.8 0.8-0.8h5c0.4 0 0.8 0.3 0.8 0.8v27z"></path>
            <path d="M7.6 0h-5c-1.3 0-2.3 1-2.3 2.3v27c0 1.2 1 2.3 2.3 2.3h5c1.2 0 2.3-1 2.3-2.3v-27c-0.1-1.3-1.1-2.3-2.3-2.3zM8.3 29.3c0 0.4-0.3 0.7-0.7 0.7h-5c-0.4 0-0.8-0.3-0.8-0.8v-27c0-0.4 0.3-0.8 0.8-0.8h5c0.4 0 0.8 0.3 0.8 0.8v27.1z"></path>
        </symbol>
        <symbol id="tcb-icon-call_2_action" viewBox="0 0 32 32">
            <title>call_2_action</title>
            <path d="M28.357 0.041h-24.714c-1.986 0-3.602 1.616-3.602 3.602v24.715c0 1.986 1.616 3.602 3.602 3.602h24.715c1.986 0 3.602-1.615 3.602-3.602v-24.716c-0.001-1.986-1.616-3.601-3.603-3.601zM30.459 28.357c0 1.159-0.942 2.102-2.102 2.102h-11.654l-0.001-3.563c0-0.053-0.021-0.099-0.030-0.149l2.151 0.006-2.954-3.658-2.701 3.644 1.947 0.005c-0.010 0.051-0.031 0.099-0.031 0.152l0.001 3.563h-11.442c-1.159 0-2.102-0.942-2.102-2.102v-24.715c0-1.159 0.943-2.102 2.102-2.102h24.715c1.159 0 2.102 0.943 2.102 2.102v24.715z"></path>
            <path d="M25.805 15.364h-20.087c-0.998 0-1.809 0.811-1.809 1.809v7.876c0 0.997 0.811 1.809 1.809 1.809h6.155v-1.618h-6.155c-0.105 0-0.191-0.086-0.191-0.191v-7.876c0-0.105 0.086-0.191 0.191-0.191h20.086c0.105 0 0.191 0.086 0.191 0.191v7.876c0 0.106-0.086 0.191-0.191 0.191h-5.89v1.617h5.89c0.997 0 1.809-0.812 1.809-1.809v-7.876c0-0.997-0.811-1.808-1.808-1.808z"></path>
            <path d="M15.893 18.281c-0.447 0-0.809 0.362-0.809 0.809v2.115c0 0.446 0.362 0.809 0.809 0.809s0.809-0.362 0.809-0.809v-2.115c0-0.446-0.362-0.809-0.809-0.809z"></path>
            <path d="M21.781 23.772c0-0.446-0.362-0.809-0.809-0.809h-2.115c-0.446 0-0.809 0.362-0.809 0.809 0 0.446 0.362 0.809 0.809 0.809h2.115c0.447 0 0.809-0.362 0.809-0.809z"></path>
            <path d="M12.93 22.964h-2.115c-0.447 0-0.809 0.362-0.809 0.809 0 0.446 0.362 0.809 0.809 0.809h2.115c0.447 0 0.809-0.362 0.809-0.809s-0.362-0.809-0.809-0.809z"></path>
            <path d="M12.663 19.808c-0.338-0.292-0.848-0.258-1.141 0.080s-0.257 0.848 0.080 1.141l1.596 1.387c0.153 0.133 0.342 0.198 0.53 0.198 0.226 0 0.451-0.094 0.611-0.278 0.293-0.337 0.257-0.848-0.080-1.141l-1.596-1.387z"></path>
            <path d="M19.976 21.272c0.338-0.293 0.373-0.804 0.080-1.141-0.293-0.338-0.806-0.371-1.141-0.080l-1.595 1.387c-0.337 0.293-0.373 0.804-0.080 1.141 0.16 0.185 0.385 0.278 0.61 0.278 0.189 0 0.378-0.065 0.53-0.198l1.596-1.387z"></path>
            <path d="M5.037 10.049h21.465c0.414 0 0.75-0.336 0.75-0.75s-0.336-0.75-0.75-0.75h-21.465c-0.414 0-0.75 0.336-0.75 0.75s0.336 0.75 0.75 0.75z"></path>
            <path d="M5.037 13.049h21.465c0.414 0 0.75-0.336 0.75-0.75s-0.336-0.75-0.75-0.75h-21.465c-0.414 0-0.75 0.336-0.75 0.75s0.336 0.75 0.75 0.75z"></path>
            <path d="M5.037 7.049h7.465c0.414 0 0.75-0.336 0.75-0.75s-0.336-0.75-0.75-0.75h-7.465c-0.414 0-0.75 0.336-0.75 0.75s0.336 0.75 0.75 0.75z"></path>
        </symbol>
        <symbol id="tcb-icon-styled_box" viewBox="0 0 32 32">
            <title>styled_box</title>
            <path fill="#333" style="fill: var(--color3, #333)" d="M32 32.1h-5.9v-1.5h5.2v0.6h0.7v0.9zM24.8 32.1h-5.2v-1.5h5.2v1.5zM18.4 32.1h-5.2v-1.5h5.2v1.5zM12 32.1h-5.2v-1.5h5.2v1.5zM5.6 32.1h-5.6v-1.1h0.8v-0.4h4.8v1.5zM32 30h-1.5v-5.2h1.5v5.2zM1.5 29.7h-1.5v-5.2h1.5v5.2zM32 23.5h-1.5v-5.2h1.5v5.2zM1.5 23.3h-1.5v-5.2h1.5v5.2zM32 17.1h-1.5v-5.2h1.5v5.2zM1.5 16.9h-1.5v-5.2h1.5v5.2zM32 10.7h-1.5v-5.2h1.5v5.2zM1.5 10.5h-1.5v-5.2h1.5v5.2zM32 4.3h-1.5v-2.7h-1v-1.5h2.5v4.2zM1.5 4.1h-1.5v-4h2.7v1.5h-1.2v2.5zM28.3 1.6h-5.2v-1.5h5.2v1.5zM21.9 1.6h-5.2v-1.5h5.2v1.5zM15.5 1.6h-5.2v-1.5h5.2v1.5zM9.1 1.6h-5.2v-1.5h5.2v1.5z"></path>
            <path fill="#333" style="fill: var(--color3, #333)" d="M28 28.1h-24v-24h24v24zM5.5 26.6h21v-21h-21v21z"></path>
            <path fill="#f9f7f7" style="fill: var(--color7, #f9f7f7)" d="M9.6 21.1c0 0 1.4-0.7 1.6-2 0.2-1.2 1.1-1.8 1.6-2 0.5-0.1 1.4 0.1 1.4 0.1l0.9 1c0 0-0.2 1.5-0.5 2-0.5 0.7-1.5 1-2.1 1-0.5 0.1-2.9-0.1-2.9-0.1z"></path>
            <path fill="#333" style="fill: var(--color3, #333)" d="M12.5 22c-0.8 0-2.8-0.1-2.9-0.1-0.3 0-0.6-0.3-0.7-0.6s0.1-0.7 0.4-0.8c0 0 1.1-0.6 1.3-1.5 0.3-1.4 1.3-2.3 2.1-2.6 0.6-0.2 1.6 0 1.8 0.1 0.2 0 0.3 0.1 0.4 0.2l0.9 1c0.1 0.2 0.2 0.4 0.2 0.6 0 0.4-0.2 1.8-0.6 2.3-0.6 1-1.8 1.4-2.7 1.4-0.1 0-0.1 0-0.2 0zM11.4 20.5c0.5 0 0.9 0 1.2 0 0.5 0 1.2-0.2 1.5-0.7 0.1-0.2 0.2-0.7 0.3-1.4l-0.5-0.6c-0.3-0.1-0.7-0.1-0.9 0-0.3 0.1-0.9 0.5-1.1 1.4 0 0.5-0.2 0.9-0.5 1.3z"></path>
            <path fill="#f9f7f7" style="fill: var(--color7, #f9f7f7)" d="M22.6 9.5c-0.5-0.4-1.5 0-1.8 0.3 0 0-6.3 6.8-6.3 6.9l1.2 1.2c0.1 0 6.9-6.4 6.9-6.4 0.8-1 0.4-1.7 0-2z"></path>
            <path fill="#333" style="fill: var(--color3, #333)" d="M15.7 18.7c-0.2 0-0.4-0.1-0.5-0.2l-1.2-1.2c-0.2-0.2-0.3-0.5-0.2-0.8 0.1-0.2 0.1-0.3 6.5-7.2 0.5-0.5 1.9-1.2 2.9-0.4 0.7 0.6 1.2 1.7 0.1 3.1 0 0-0.1 0.1-0.1 0.1-6.9 6.5-7 6.5-7.1 6.6-0.3 0-0.4 0-0.4 0zM15.4 16.7l0.2 0.2c1.2-1.1 4.2-3.9 6.3-5.9 0.5-0.6 0.2-0.8 0.1-0.9 0 0 0 0 0 0-0.1-0.1-0.7 0.1-0.8 0.3-1.9 2.1-4.7 5.1-5.8 6.3zM22.5 11.5v0 0z"></path>
        </symbol>
        <symbol id="tcb-icon-guarantee_box" viewBox="0 0 32 32">
            <title>guarantee_box</title>
            <path d="M27.977 11.829c0-0.213-0.086-0.418-0.239-0.566l-1.781-1.729 0.837-2.313c0.072-0.2 0.062-0.42-0.031-0.611-0.092-0.191-0.258-0.337-0.459-0.405l-2.381-0.802-0.268-2.445c-0.023-0.209-0.129-0.4-0.293-0.531s-0.378-0.192-0.583-0.167l-2.512 0.29-1.329-2.099c-0.232-0.367-0.716-0.477-1.085-0.248l-2.135 1.332-2.134-1.332c-0.367-0.229-0.852-0.119-1.085 0.247l-1.332 2.1-2.512-0.29c-0.21-0.024-0.418 0.036-0.583 0.167s-0.27 0.322-0.292 0.531l-0.27 2.443-2.381 0.803c-0.201 0.067-0.367 0.213-0.459 0.405s-0.103 0.412-0.031 0.612l0.84 2.312-1.783 1.729c-0.153 0.149-0.24 0.353-0.24 0.567 0 0.213 0.086 0.418 0.24 0.566l1.783 1.731-0.84 2.311c-0.072 0.2-0.062 0.42 0.031 0.612 0.092 0.191 0.258 0.338 0.459 0.405l2.381 0.802 0.269 2.446c0.023 0.209 0.128 0.4 0.292 0.531 0.165 0.132 0.375 0.192 0.583 0.167l2.512-0.291 0.53 0.837c0.001 0.002 0.002 0.003 0.003 0.005l0.115 0.181v9.047c0 0.277 0.146 0.534 0.383 0.677s0.532 0.15 0.777 0.021l3.103-1.649 2.303 1.601c0.135 0.094 0.292 0.141 0.45 0.141 0.125 0 0.251-0.029 0.365-0.090 0.261-0.136 0.424-0.405 0.424-0.699v-9.048l0.646-1.021 2.512 0.291c0.206 0.026 0.419-0.035 0.583-0.167 0.164-0.131 0.27-0.322 0.293-0.531l0.268-2.447 2.381-0.801c0.201-0.067 0.367-0.214 0.459-0.405 0.093-0.191 0.104-0.412 0.031-0.611l-0.837-2.312 1.781-1.731c0.155-0.151 0.241-0.356 0.241-0.569zM18.042 29.669l-1.458-1.014c-0.244-0.17-0.561-0.188-0.821-0.049l-2.369 1.26v-6.337c0.064-0.020 0.13-0.034 0.19-0.071l2.134-1.331 2.135 1.331c0.061 0.038 0.124 0.064 0.189 0.084v6.127zM24.49 13.349c-0.223 0.216-0.298 0.543-0.192 0.835l0.735 2.032-2.093 0.705c-0.291 0.098-0.499 0.356-0.533 0.662l-0.236 2.158-2.216-0.256c-0.297-0.034-0.596 0.106-0.758 0.362l-1.175 1.855-1.887-1.177c-0.256-0.16-0.58-0.16-0.836 0l-1.888 1.178-0.38-0.598c-0.001-0.002-0.001-0.003-0.002-0.005l-0.795-1.255c-0.162-0.255-0.452-0.4-0.758-0.361l-2.215 0.256-0.237-2.158c-0.034-0.306-0.242-0.564-0.533-0.662l-2.092-0.704 0.738-2.032c0.106-0.292 0.031-0.62-0.192-0.836l-1.566-1.52 1.566-1.518c0.223-0.217 0.298-0.544 0.192-0.836l-0.738-2.032 2.092-0.705c0.292-0.098 0.499-0.356 0.533-0.662l0.237-2.158 2.216 0.255c0.305 0.036 0.595-0.106 0.757-0.361l1.178-1.856 1.888 1.178c0.256 0.159 0.58 0.159 0.836 0l1.887-1.177 1.175 1.855c0.162 0.256 0.46 0.399 0.758 0.362l2.216-0.255 0.236 2.157c0.034 0.306 0.242 0.564 0.533 0.662l2.093 0.705-0.735 2.034c-0.105 0.292-0.030 0.619 0.192 0.835l1.565 1.519-1.566 1.519z"></path>
            <path d="M15.718 5.435c-3.599 0-6.527 2.868-6.527 6.394 0 3.525 2.928 6.394 6.527 6.394 3.6 0 6.527-2.868 6.527-6.394s-2.928-6.394-6.527-6.394zM15.718 16.723c-2.772 0-5.027-2.195-5.027-4.894s2.255-4.894 5.027-4.894c2.772 0 5.027 2.195 5.027 4.894s-2.255 4.894-5.027 4.894z"></path>
        </symbol>
    </defs>
</svg>
