<svg style="position: absolute; width: 0; height: 0; overflow: hidden;" version="1.1" xmlns="http://www.w3.org/2000/svg" xmlns:xlink="http://www.w3.org/1999/xlink">
    <defs>
        <symbol id="icon-tvd-ct-symbols-icon" viewBox="0 0 32 32">
            <title>templatesnsymbols</title>
            <path fill="#42b265" style="fill: var(--color1, #42b265)"
                  d="M18.631 10.311c-4.267 0-7.751 3.484-7.751 7.751 0 1.316 0.32 2.56 0.889 3.627 0.036 0.071 0.071 0.107 0.107 0.178 1.351 2.347 3.876 3.947 6.756 3.947 4.267 0 7.751-3.484 7.751-7.751 0.036-4.302-3.449-7.751-7.751-7.751zM24.64 21.013h-1.636c0.213-0.782 0.32-1.671 0.356-2.596h1.956c-0.036 0.924-0.284 1.813-0.676 2.596zM12.622 15.147h1.6c-0.178 0.711-0.284 1.458-0.32 2.24h-1.956c0.107-0.818 0.32-1.564 0.676-2.24zM19.271 14.080v-2.56c0.924 0.32 1.742 1.244 2.276 2.56h-2.276zM21.938 15.147c0.178 0.676 0.32 1.458 0.391 2.24h-3.022v-2.24h2.631zM18.24 11.449v2.631h-2.524c0.604-1.422 1.493-2.418 2.524-2.631zM18.24 15.147v2.24h-3.271c0.036-0.782 0.178-1.529 0.391-2.24h2.88zM11.947 18.418h1.956c0.036 0.924 0.142 1.778 0.356 2.596h-1.636c-0.391-0.782-0.64-1.671-0.676-2.596zM14.969 18.418h3.271v2.596h-2.88c-0.249-0.782-0.391-1.671-0.391-2.596zM18.24 22.044v2.596c-0.996-0.213-1.92-1.209-2.524-2.596h2.524zM19.271 24.604v-2.56h2.276c-0.533 1.316-1.351 2.24-2.276 2.56zM19.271 21.013v-2.596h3.058c-0.036 0.924-0.178 1.778-0.391 2.596h-2.667zM23.36 17.351c-0.036-0.782-0.142-1.529-0.32-2.24h1.636c0.32 0.676 0.569 1.422 0.64 2.24h-1.956zM24.036 14.080h-1.316c-0.284-0.782-0.64-1.458-1.067-2.027 0.924 0.498 1.742 1.173 2.382 2.027zM15.609 12.089c-0.427 0.569-0.782 1.244-1.067 1.991h-1.316c0.64-0.853 1.458-1.529 2.382-1.991zM13.262 22.044h1.316c0.284 0.747 0.64 1.422 1.067 1.991-0.96-0.462-1.778-1.138-2.382-1.991zM21.653 24.036c0.427-0.569 0.782-1.244 1.067-1.991h1.316c-0.64 0.853-1.458 1.529-2.382 1.991z"></path>
            <path fill="#333" style="fill: var(--color2, #333)" d="M30.578 4.764h-3.236v-2.951c0-0.782-0.64-1.422-1.422-1.422h-24.498c-0.782 0-1.422 0.64-1.422 1.422v24.996c0 0.782 0.64 1.422 1.422 1.422h3.236v1.956c0 0.782 0.64 1.422 1.422 1.422h24.498c0.782 0 1.422-0.64 1.422-1.422v-24c0-0.782-0.64-1.422-1.422-1.422zM30.933 30.187c0 0.213-0.178 0.356-0.356 0.356h-24.498c-0.213 0-0.356-0.178-0.356-0.356v-7.644h-1.067v4.622h-3.236c-0.213 0-0.356-0.178-0.356-0.356v-24.996c0-0.213 0.178-0.356 0.356-0.356h24.498c0.213 0 0.356 0.178 0.356 0.356v2.916h-4.907v1.067h9.209c0.213 0 0.356 0.178 0.356 0.356v24.036z"></path>
            <path fill="#333" style="fill: var(--color2, #333)" d="M10.098 4.764h5.12v1.067h-5.12v-1.067z"></path>
            <path fill="#333" style="fill: var(--color2, #333)" d="M16.462 4.764h3.947v1.067h-3.947v-1.067z"></path>
            <path fill="#333" style="fill: var(--color2, #333)" d="M4.658 15.431h1.067v5.12h-1.067v-5.12z"></path>
            <path fill="#333" style="fill: var(--color2, #333)" d="M4.658 10.453h1.067v3.769h-1.067v-3.769z"></path>
            <path fill="#333" style="fill: var(--color2, #333)" d="M3.769 8.996h4.836v-4.8h-4.836v4.8zM4.836 5.227h2.702v2.702h-2.702v-2.702z"></path>
        </symbol>
        <symbol id="icon-tvd-icon-exchange" viewBox="0 0 32 32">
            <title>API_connections</title>
            <path fill="#42b265" style="fill: var(--color1, #42b265)" d="M17.707 18.524c-0.249 0.178-0.284 0.533-0.107 0.782 0.107 0.142 0.284 0.213 0.427 0.213 0.107 0 0.249-0.036 0.356-0.107l3.769-2.951-3.769-3.129c-0.249-0.178-0.569-0.178-0.782 0.071s-0.178 0.569 0.071 0.782l2.204 1.813h-10.133v1.102h9.778l-1.813 1.422z"></path>
            <path fill="#42b265" style="fill: var(--color1, #42b265)" d="M14.4 19.413c0.249-0.178 0.284-0.533 0.107-0.782s-0.533-0.284-0.782-0.107l-3.769 2.951 3.769 3.093c0.107 0.071 0.213 0.142 0.356 0.142s0.32-0.071 0.427-0.213c0.178-0.249 0.178-0.569-0.071-0.782l-1.813-1.493h9.28v-1.102h-9.742l2.24-1.707z"></path>
            <path fill="#333" style="fill: var(--color2, #333)" d="M5.191 7.111c0.427 0 0.747-0.32 0.747-0.747 0-0.391-0.32-0.747-0.747-0.747s-0.747 0.32-0.747 0.747c-0.036 0.427 0.32 0.747 0.747 0.747z"></path>
            <path fill="#333" style="fill: var(--color2, #333)" d="M3.627 6.364c0 0.412-0.334 0.747-0.747 0.747s-0.747-0.334-0.747-0.747c0-0.412 0.334-0.747 0.747-0.747s0.747 0.334 0.747 0.747z"></path>
            <path fill="#333" style="fill: var(--color2, #333)" d="M8.249 6.364c0 0.412-0.334 0.747-0.747 0.747s-0.747-0.334-0.747-0.747c0-0.412 0.334-0.747 0.747-0.747s0.747 0.334 0.747 0.747z"></path>
            <path fill="#333" style="fill: var(--color2, #333)" d="M30.009 3.413h-28.018c-1.067 0-1.956 0.889-1.956 1.956v21.262c0 1.067 0.889 1.956 1.956 1.956h28.018c1.067 0 1.956-0.889 1.956-1.956v-21.262c0-1.067-0.889-1.956-1.956-1.956zM1.991 4.48h28.018c0.498 0 0.889 0.391 0.889 0.889v2.809h-29.796v-2.809c0-0.498 0.391-0.889 0.889-0.889zM30.009 27.52h-28.018c-0.498 0-0.889-0.391-0.889-0.889v-17.387h29.796v17.387c0 0.498-0.391 0.889-0.889 0.889z"></path>
        </symbol>
        <symbol id="icon-tvd-icon-rocket" viewBox="0 0 32 32">
            <title>retina_icons</title>
            <path fill="#396" style="fill: var(--color1, #396)" d="M11.769 13.511l-2.062-1.813-8.604 8.498 0.747 0.747 7.893-7.787 1.244 1.067v0.711h1.422v-1.422z"></path>
            <path fill="#42b265" style="fill: var(--color2, #42b265)" d="M15.182 14.862h1.351v1.351h-1.351v-1.351z"></path>
            <path fill="#42b265" style="fill: var(--color2, #42b265)" d="M20.978 17.956h1.351v1.351h-1.351v-1.351z"></path>
            <path fill="#42b265" style="fill: var(--color2, #42b265)" d="M19.484 16.462h1.351v1.351h-1.351v-1.351z"></path>
            <path fill="#42b265" style="fill: var(--color2, #42b265)" d="M22.4 19.342h1.351v1.351h-1.351v-1.351z"></path>
            <path fill="#42b265" style="fill: var(--color2, #42b265)" d="M17.991 14.862h1.351v1.351h-1.351v-1.351z"></path>
            <path fill="#42b265" style="fill: var(--color2, #42b265)" d="M16.604 13.44h1.351v1.351h-1.351v-1.351z"></path>
            <path fill="#42b265" style="fill: var(--color2, #42b265)" d="M12.302 17.742h1.351v1.351h-1.351v-1.351z"></path>
            <path fill="#42b265" style="fill: var(--color2, #42b265)" d="M10.702 19.164h1.778v1.351h-1.778v-1.351z"></path>
            <path fill="#42b265" style="fill: var(--color2, #42b265)" d="M13.796 14.933h-1.387v1.422h1.316v1.316h1.351v-1.351h-1.28z"></path>
            <path fill="#333" style="fill: var(--color2, #333)" d="M6.258 5.724h-0.178c-1.209 0-2.24 0.996-2.24 2.24v0.178c0 1.209 0.996 2.24 2.24 2.24h0.178c1.209 0 2.24-0.996 2.24-2.24v-0.178c0-1.244-0.996-2.24-2.24-2.24zM7.431 8.107c0 0.64-0.533 1.173-1.173 1.173h-0.178c-0.64 0-1.173-0.533-1.173-1.173v-0.178c0-0.64 0.533-1.173 1.173-1.173h0.178c0.64 0 1.173 0.533 1.173 1.173v0.178z"></path>
            <path fill="#333" style="fill: var(--color3, #333)" d="M30.933 29.76l-4.978-5.156c1.493-1.671 2.418-3.876 2.418-6.258 0-3.093-1.493-5.831-3.804-7.502v-8.142c0-1.458-1.209-2.667-2.667-2.667h-18.524c-1.458 0-2.667 1.209-2.667 2.667v18.524c0 1.458 1.209 2.667 2.667 2.667h8.178c1.707 2.311 4.444 3.804 7.502 3.804 1.742 0 3.378-0.498 4.764-1.316l5.049 5.049c0.356 0.356 0.747 0.569 1.173 0.569 0.107 0 0.178 0 0.284-0.036 0.462-0.107 0.782-0.391 0.924-0.818 0.107-0.498 0-1.067-0.32-1.387zM3.378 22.827c-0.889 0-1.6-0.711-1.6-1.6v-18.524c0-0.889 0.711-1.6 1.6-1.6h18.524c0.889 0 1.6 0.711 1.6 1.6v7.467c-1.316-0.711-2.844-1.138-4.444-1.138-5.156 0-9.316 4.196-9.316 9.316 0 1.636 0.427 3.129 1.138 4.48h-7.502zM12.089 22.827c-0.818-1.28-1.316-2.809-1.316-4.48 0-4.551 3.698-8.249 8.249-8.249 1.636 0 3.164 0.498 4.444 1.316v0 0c0 0 0 0 0 0v0 9.813c0 0.889-0.711 1.6-1.6 1.6h-9.778zM19.058 26.596c-2.418 0-4.622-1.067-6.116-2.738h8.996c1.458 0 2.667-1.209 2.667-2.667v-8.996c1.671 1.529 2.738 3.698 2.738 6.151-0.036 4.551-3.733 8.249-8.284 8.249zM30.187 30.791c0 0.036-0.036 0.071-0.107 0.071-0.178 0.036-0.356-0.107-0.462-0.213l-4.907-4.907c0.178-0.107 0.32-0.249 0.462-0.391l4.978 5.12c0.071 0.071 0.107 0.213 0.036 0.32z"></path>
        </symbol>
        <symbol id="icon-tvd-icon-cogs" viewBox="0 0 32 32">
            <title>general_settings</title>
            <path fill="#333" style="fill: var(--color1, #333)" d="M10.667 17.422h11.022v1.067h-11.022v-1.067z"></path>
            <path fill="#42b265" style="fill: var(--color2, #42b265)" d="M12.693 16.747h2.24v2.489h-2.24v-2.489z"></path>
            <path fill="#333" style="fill: var(--color1, #333)" d="M29.191 17.742c0.142-1.209 0.142-2.418-0.036-3.627l2.88-2.667-0.107-0.32c-0.32-1.067-0.782-2.133-1.316-3.129l-0.178-0.284-3.911 0.249c-0.747-0.96-1.6-1.813-2.596-2.56l0.178-3.947-0.391-0.213c-0.107-0.071-0.249-0.142-0.356-0.178-0.818-0.391-1.707-0.747-2.667-1.031l-0.32-0.107-2.596 2.987c-1.209-0.142-2.418-0.142-3.627 0.036l-2.667-2.88-0.32 0.107c-1.067 0.356-2.133 0.782-3.093 1.316l-0.284 0.178 0.213 3.911c-0.96 0.747-1.813 1.636-2.56 2.596l-3.911-0.142-0.213 0.427c-0.071 0.107-0.107 0.213-0.178 0.32-0.427 0.853-0.747 1.742-1.031 2.667l-0.107 0.32 2.951 2.596c-0.142 1.209-0.142 2.418 0.036 3.627l-2.88 2.667 0.107 0.32c0.32 1.067 0.782 2.133 1.316 3.129l0.178 0.284 3.911-0.249c0.747 0.96 1.6 1.813 2.596 2.56l-0.178 3.947 0.427 0.213c0.107 0.071 0.213 0.107 0.356 0.178 0.853 0.427 1.742 0.747 2.667 1.031l0.32 0.107 2.596-2.951c1.209 0.142 2.418 0.142 3.627-0.036l2.667 2.88 0.32-0.107c1.067-0.32 2.098-0.782 3.129-1.316l0.284-0.178-0.249-3.947c0.96-0.747 1.813-1.6 2.56-2.596l3.911 0.178 0.213-0.391c0.071-0.107 0.142-0.249 0.178-0.391 0.427-0.853 0.747-1.742 1.031-2.667l0.107-0.32-2.987-2.596zM30.044 22.898c-0.036 0.036-0.036 0.107-0.071 0.142l-3.84-0.142-0.142 0.213c-0.747 1.067-1.671 1.991-2.702 2.773l-0.249 0.178 0.213 3.84c-0.747 0.391-1.529 0.711-2.311 0.996l-2.596-2.809h-0.249c-1.28 0.213-2.596 0.249-3.876 0.036l-0.32-0.036-2.524 2.88c-0.747-0.249-1.493-0.533-2.169-0.853-0.036-0.036-0.107-0.036-0.142-0.071l0.178-3.84-0.249-0.178c-1.067-0.747-1.991-1.671-2.773-2.702l-0.178-0.249-3.804 0.249c-0.391-0.747-0.711-1.529-0.96-2.311l2.809-2.596-0.036-0.284c-0.213-1.28-0.249-2.596-0.036-3.876l0.036-0.284-2.844-2.524c0.213-0.782 0.498-1.493 0.853-2.204 0.036-0.036 0.036-0.071 0.071-0.142l3.84 0.142 0.178-0.249c0.747-1.067 1.671-1.991 2.702-2.773l0.249-0.178-0.249-3.804c0.747-0.391 1.493-0.711 2.311-0.996l2.596 2.809 0.284-0.036c1.28-0.213 2.631-0.249 3.876-0.036l0.284 0.036 2.524-2.88c0.782 0.249 1.493 0.533 2.169 0.853 0.036 0.036 0.107 0.036 0.142 0.071l-0.178 3.84 0.249 0.178c1.067 0.747 1.991 1.671 2.773 2.702l0.178 0.249 3.804-0.213c0.391 0.747 0.711 1.529 0.96 2.311l-2.809 2.596 0.036 0.284c0.213 1.316 0.213 2.596 0.036 3.876l-0.036 0.284 2.844 2.524c-0.213 0.782-0.498 1.493-0.853 2.204z"></path>
            <path fill="#333" style="fill: var(--color1, #333)" d="M16 5.867c-2.738 0-5.298 1.031-7.253 2.951s-3.022 4.409-2.987 7.111c0 5.582 4.622 10.027 10.24 10.027v0c2.738 0 5.298-0.96 7.253-2.88 1.92-1.92 2.987-4.373 2.987-7.076 0.036-5.582-4.587-10.133-10.24-10.133zM22.507 22.4c-1.742 1.707-4.053 2.667-6.507 2.667v0c-4.978 0-9.173-4.089-9.173-9.067 0-2.418 0.96-4.693 2.702-6.4s4.053-2.667 6.507-2.667c5.049 0 9.173 4.053 9.173 9.067 0 2.418-0.96 4.693-2.702 6.4z"></path>
            <path fill="#333" style="fill: var(--color1, #333)" d="M19.093 12.729h-2.489v0.782h-5.938v1.067h5.902v0.64h2.489v-0.64h2.631v-1.067h-2.596v-0.782zM18.382 14.507h-1.067v-1.067h1.067v1.067z"></path>
        </symbol>
        <symbol id="icon-tvd-icon-notification" viewBox="0 0 32 32">
            <title>notification_manager</title>
            <path fill="#fff" style="fill: var(--color1, #fff)" d="M30.044 5.938h-27.982c-0.782 0-1.316 0.533-1.316 1.316v16.96c0 0.782 0.533 1.6 1.316 1.6h19.484c0 0 0.036 0.071 0.036 0.178 0.249 3.307-2.062 4.8-2.062 4.8s3.413-0.391 5.547-3.058c0.533-0.64 0.782-1.529 0.924-1.884h4.124c0.782 0 1.564-0.818 1.564-1.6v-16.996c-0.071-0.782-0.853-1.316-1.636-1.316z"></path>
            <path fill="#333" style="fill: var(--color2, #333)" d="M17.244 31.573l1.956-1.28c0.107-0.071 1.956-1.351 1.849-4.124h-18.987c-1.102 0-2.027-0.889-2.027-1.92v-16.996c0-1.067 0.96-2.027 2.027-2.027h28.018c1.067 0 1.92 0.924 1.92 2.027v16.96c0 1.102-0.853 1.92-1.92 1.92h-3.698c-0.178 0.604-0.462 1.173-0.924 1.742-2.24 2.809-5.724 3.307-5.867 3.342l-2.347 0.356zM2.062 6.293c-0.498 0-0.96 0.462-0.96 0.96v16.96c0 0.462 0.462 0.889 0.96 0.889h19.484c0.498 0 0.533 0.498 0.569 0.711v0.036c0.142 1.707-0.356 2.987-0.924 3.84 1.067-0.427 2.418-1.173 3.449-2.453 0.462-0.569 0.711-1.102 0.818-1.707l0.071-0.427h4.551c0.498 0 0.853-0.391 0.853-0.889v-16.96c0-0.533-0.391-0.96-0.853-0.96h-28.018z"></path>
            <path fill="#333" style="fill: var(--color2, #333)" d="M3.236 15.858h12.053v1.067h-12.053v-1.067z"></path>
            <path fill="#333" style="fill: var(--color2, #333)" d="M3.236 18.524h15.964v1.067h-15.964v-1.067z"></path>
            <path fill="#333" style="fill: var(--color2, #333)" d="M3.236 21.191h15.964v1.067h-15.964v-1.067z"></path>
            <path fill="#42b265" style="fill: var(--color3, #42b265)" d="M29.049 12.658c0-0.107-0.036-0.213-0.107-0.284-0.498-0.498-0.853-1.067-1.102-1.707-0.178-0.533-0.249-1.067-0.249-1.636-0.036-0.996-0.036-1.991-0.142-2.951-0.071-0.711-0.178-1.387-0.498-2.027s-0.782-1.138-1.351-1.564c-0.427-0.284-0.853-0.462-1.316-0.604 0.071-0.142 0.107-0.284 0.107-0.427 0-0.569-0.462-1.031-1.031-1.031s-1.031 0.462-1.031 1.031c0 0.142 0.036 0.284 0.107 0.427-0.853 0.249-1.529 0.604-2.098 1.209-0.462 0.498-0.747 1.067-0.924 1.671-0.213 0.711-0.249 1.458-0.284 2.204-0.036 0.818-0.036 1.671-0.071 2.489-0.036 1.031-0.462 1.956-1.173 2.738-0.213 0.249-0.32 0.462-0.284 0.782 0.036 0.178 0 0.178 0.213 0.178 3.698 0 7.396 0 11.129 0 0.036 0 0.036 0 0.071 0 0.071 0 0.107-0.036 0.107-0.107-0.071-0.107-0.071-0.249-0.071-0.391z"></path>
            <path fill="#42b265" style="fill: var(--color3, #42b265)" d="M23.324 16c1.031 0 1.884-0.853 1.884-1.884h-3.804c0 1.067 0.853 1.884 1.92 1.884z"></path>
        </symbol>
        <symbol id="icon-tvd-nm-icon-code" viewBox="0 0 32 32">
            <title>lps_analytics_scripts</title>
            <path fill="#333" style="fill: var(--color1, #333)" d="M31.787 13.333c-0.284-0.071-0.569 0.142-0.64 0.427l-1.813 8.818c-0.071 0.284 0.142 0.569 0.427 0.64 0.036 0 0.071 0 0.107 0 0.249 0 0.462-0.178 0.533-0.427l1.813-8.818c0.071-0.32-0.142-0.604-0.427-0.64z"></path>
            <path fill="#333" style="fill: var(--color1, #333)" d="M28.124 16.071c-0.178-0.213-0.533-0.249-0.747-0.071l-2.773 2.311 2.773 2.169c0.107 0.071 0.213 0.107 0.32 0.107 0.142 0 0.32-0.071 0.427-0.213 0.178-0.249 0.142-0.569-0.107-0.747l-1.707-1.351 1.778-1.458c0.213-0.178 0.249-0.498 0.036-0.747z"></path>
            <path fill="#333" style="fill: var(--color1, #333)" d="M5.191 5.653c-0.427 0-0.747 0.32-0.747 0.747 0 0.391 0.32 0.747 0.747 0.747s0.747-0.32 0.747-0.747c0-0.427-0.356-0.747-0.747-0.747z"></path>
            <path fill="#333" style="fill: var(--color1, #333)" d="M3.627 6.364c0 0.412-0.334 0.747-0.747 0.747s-0.747-0.334-0.747-0.747c0-0.412 0.334-0.747 0.747-0.747s0.747 0.334 0.747 0.747z"></path>
            <path fill="#333" style="fill: var(--color1, #333)" d="M8.249 6.364c0 0.412-0.334 0.747-0.747 0.747s-0.747-0.334-0.747-0.747c0-0.412 0.334-0.747 0.747-0.747s0.747 0.334 0.747 0.747z"></path>
            <path fill="#333" style="fill: var(--color1, #333)" d="M30.898 26.631c0 0.498-0.391 0.889-0.889 0.889h-28.018c-0.498 0-0.889-0.391-0.889-0.889v-17.387h29.796v2.204h1.067v-6.080c0-1.067-0.889-1.956-1.956-1.956h-28.018c-1.067 0-1.956 0.889-1.956 1.956v21.262c0 1.067 0.889 1.956 1.956 1.956h28.018c1.067 0 1.956-0.889 1.956-1.956v-1.813h-1.067v1.813zM1.102 5.369c0-0.498 0.391-0.889 0.889-0.889h28.018c0.498 0 0.889 0.391 0.889 0.889v2.809h-29.796v-2.809z"></path>
            <path fill="#333" style="fill: var(--color1, #333)" d="M3.378 11.804v13.369h18.667v-1.067h-17.6v-12.302z"></path>
            <path fill="#333" style="fill: var(--color1, #333)" d="M6.258 21.724h1.067v1.493h-1.067v-1.493z"></path>
            <path fill="#333" style="fill: var(--color1, #333)" d="M8.924 20.658h1.067v2.56h-1.067v-2.56z"></path>
            <path fill="#333" style="fill: var(--color1, #333)" d="M11.556 19.591h1.067v3.627h-1.067v-3.627z"></path>
            <path fill="#333" style="fill: var(--color1, #333)" d="M14.222 18.027h1.067v5.191h-1.067v-5.191z"></path>
            <path fill="#333" style="fill: var(--color1, #333)" d="M16.853 15.396h1.067v7.822h-1.067v-7.822z"></path>
            <path fill="#42b265" style="fill: var(--color2, #42b265)" d="M18.702 14.009l-0.533-2.24-2.382 0.569c-0.284 0.071-0.462 0.356-0.391 0.64s0.356 0.462 0.64 0.391l0.462-0.107c-2.56 3.52-5.796 5.44-10.133 5.973-0.284 0.036-0.498 0.32-0.462 0.604s0.249 0.462 0.533 0.462c0.036 0 0.036 0 0.071 0 4.658-0.604 8.284-2.773 11.022-6.613l0.142 0.569c0.071 0.249 0.284 0.427 0.533 0.427 0.036 0 0.071 0 0.142 0 0.249-0.107 0.427-0.391 0.356-0.676z"></path>
        </symbol>
        <symbol id="icon-tvd-icon-font" viewBox="0 0 32 32">
            <title>custom_fonts</title>
            <path fill="#fff" stroke="#333" stroke-width="1.0667" stroke-miterlimit="10" stroke-linecap="butt" stroke-linejoin="miter" style="stroke: var(--color3, #333)" style="fill: var(--color2, #fff)" d="M17.173 21.156h-9.209c-1.031 2.311-1.529 3.911-1.529 4.8 0 0.64 0.249 1.067 0.747 1.244s1.209 0.249 2.204 0.249v1.316h-8.924v-1.316c0.498-0.071 0.96-0.178 1.316-0.284 0.391-0.107 0.711-0.249 0.996-0.462 0.284-0.178 0.533-0.462 0.782-0.782 0.213-0.32 0.427-0.711 0.604-1.138l8.569-21.44h2.418l7.787 18.987c0.462 1.102 0.853 1.991 1.138 2.596 0.32 0.64 0.64 1.102 0.996 1.458 0.356 0.32 0.782 0.569 1.244 0.711s1.067 0.213 1.813 0.284v1.351h-12.302v-1.351c1.031-0.036 1.778-0.142 2.24-0.32s0.676-0.533 0.676-1.031c0-0.32-0.071-0.711-0.213-1.173s-0.356-1.067-0.604-1.742l-0.747-1.956zM8.711 19.2h7.751l-3.733-9.849h-0.142l-3.876 9.849z"></path>
            <path fill="#42b265" style="fill: var(--color4, #42b265)" d="M32 17.387c-0.32 0.107-0.569 0.213-0.782 0.249-0.213 0.071-0.498 0.107-0.782 0.107-0.498 0-0.889-0.107-1.209-0.356-0.284-0.249-0.498-0.569-0.569-1.031h-0.071c-0.427 0.462-0.853 0.818-1.351 1.067-0.462 0.249-1.067 0.356-1.742 0.356-0.711 0-1.316-0.213-1.778-0.64s-0.676-0.996-0.676-1.707c0-0.356 0.036-0.711 0.142-0.996s0.249-0.533 0.462-0.782c0.178-0.178 0.356-0.356 0.64-0.533 0.249-0.142 0.498-0.284 0.747-0.356 0.284-0.107 0.889-0.32 1.778-0.604s1.493-0.533 1.778-0.711v-0.96c0-0.071 0-0.249-0.036-0.498s-0.107-0.462-0.213-0.676c-0.142-0.249-0.32-0.462-0.533-0.64-0.249-0.178-0.569-0.249-0.996-0.249-0.284 0-0.569 0.036-0.818 0.142s-0.427 0.213-0.533 0.32c0 0.142 0.036 0.32 0.107 0.569s0.107 0.498 0.107 0.711c0 0.213-0.107 0.427-0.32 0.604s-0.498 0.284-0.853 0.284c-0.32 0-0.569-0.107-0.711-0.356-0.142-0.213-0.213-0.498-0.213-0.782s0.107-0.569 0.32-0.853c0.213-0.284 0.498-0.498 0.818-0.711 0.284-0.178 0.64-0.32 1.067-0.462s0.818-0.178 1.209-0.178c0.533 0 0.996 0.036 1.422 0.107 0.391 0.071 0.782 0.249 1.102 0.462 0.32 0.249 0.569 0.569 0.747 0.96 0.178 0.427 0.249 0.924 0.249 1.564 0 0.924 0 1.742-0.036 2.453s-0.036 1.493-0.036 2.347c0 0.249 0.036 0.462 0.142 0.604 0.071 0.142 0.213 0.284 0.391 0.391 0.107 0.071 0.249 0.107 0.462 0.107s0.427 0 0.64 0v0.676zM28.622 12.302c-0.533 0.178-1.031 0.32-1.422 0.462-0.427 0.142-0.782 0.356-1.138 0.569-0.32 0.213-0.569 0.462-0.747 0.782-0.178 0.284-0.284 0.64-0.284 1.067 0 0.533 0.142 0.924 0.427 1.173s0.64 0.391 1.067 0.391c0.462 0 0.853-0.107 1.209-0.32s0.64-0.498 0.889-0.782v-3.342z"></path>
        </symbol>
    </defs>
</svg>